HIERARCHY
ROOT pelvis
{
  OFFSET 0 100 0
  CHANNELS 6 Xposition Yposition Zposition Zrotation Xrotation Yrotation
  JOINT pelvis_right_femur
  {
    OFFSET -10.78128 -3.44521 -0.5502486
    CHANNELS 3 Zrotation Xrotation Yrotation
    JOINT right_femur_tibia
    {
      OFFSET -0.8047443 -44.0398 -0.1307829
      CHANNELS 3 Zrotation Xrotation Yrotation
      JOINT right_tibia_foot
      {
        OFFSET 3.006224 -47.83518 -5
        CHANNELS 3 Zrotation Xrotation Yrotation
        End Site
        {
          OFFSET 0 -5 15
        }
      }
    }
  }
  JOINT pelvis_left_femur
  {
    OFFSET 10.78128 -3.44521 -0.5502486
    CHANNELS 3 Zrotation Xrotation Yrotation
    JOINT left_femur_tibia
    {
      OFFSET 0.8047443 -44.0398 -0.1307829
      CHANNELS 3 Zrotation Xrotation Yrotation
      JOINT left_tibia_foot
      {
        OFFSET -4.370144 -48.10324 -4.275266
        CHANNELS 3 Zrotation Xrotation Yrotation
        End Site
        {
          OFFSET 0 -5 15
        }
      }
    }
  }
  JOINT pelvis_spine1
  {
    OFFSET 0 6.468898 -3.129235
    CHANNELS 3 Zrotation Xrotation Yrotation
    JOINT spine1
    {
      OFFSET 0 23.15396 4.99043
      CHANNELS 3 Zrotation Xrotation Yrotation
      JOINT spine2
      {
        OFFSET 0 20.79997 -5.064912
        CHANNELS 3 Zrotation Xrotation Yrotation
        JOINT neck
        {
          OFFSET 0 14.38658 9.616178
          CHANNELS 3 Zrotation Xrotation Yrotation
          End Site
          {
            OFFSET 0 20 0
          }
        }
      }
      JOINT right_manubrium
      {
        OFFSET -5.722621 16.35077 3.967754
        CHANNELS 3 Zrotation Xrotation Yrotation
        JOINT right_clavicle
        {
          OFFSET -13.16364 1.694482 -4.693211
          CHANNELS 3 Zrotation Xrotation Yrotation
          JOINT right_humerus
          {
            OFFSET -28.5034 -0.3100689 -2.792744
            CHANNELS 3 Zrotation Xrotation Yrotation
            JOINT right_radius
            {
              OFFSET -25.15693 0.02248979 -1.271978
              CHANNELS 3 Zrotation Xrotation Yrotation
              End Site
              {
                OFFSET -15 0 0
              }
            }
          }
        }
      }
      JOINT left_manubrium
      {
        OFFSET 5.722621 16.35077 3.967754
        CHANNELS 3 Zrotation Xrotation Yrotation
        JOINT left_clavicle
        {
          OFFSET 13.16364 1.694482 -4.693211
          CHANNELS 3 Zrotation Xrotation Yrotation
          JOINT left_humerus
          {
            OFFSET 29.39168 -1.063119 -2.237045
            CHANNELS 3 Zrotation Xrotation Yrotation
            JOINT left_radius
            {
              OFFSET 24.59957 -0.9528479 0.9047498
              CHANNELS 3 Zrotation Xrotation Yrotation
              End Site
              {
                OFFSET 15 -0 -0
              }
            }
          }
        }
      }
    }
  }
}
MOTION
Frames: 23
Frame Time: 0.0416666666667
0 103.5113 0 0.6950539 0.03794327 -0.318889 3.898537 -15.49177 11.22053 -0 40.40995 -0 -5.441238 -18.1159 -3.373348 -7.19086 8.409447 -23.02278 -0 6.798047 -0 14.00043 -12.14154 29.23345 -3.737911 -4.670418 5.471329 2.688996 10.52227 -7.952101 1.33182 21.38638 6.518435 2.769058 -25.22544 9.573229 7.15589 -20.53417 11.98993 84.97833 37.86502 -17.78562 -0 0 17.06471 -6.91537 8.955507 4.46122 5.895951 -19.61832 -0.8183451 -92.65921 20.82431 21.17281 0 0 -12.84067 15.05126 15.03971 -3.082553
0.3448846 104.161 1.540966 0.6163068 0.08508695 -0.585515 3.919194 -16.40203 10.6574 -0 39.74915 -0 -5.760747 -17.01186 -3.103156 -7.095003 8.47828 -22.63769 -0 6.348144 -0 13.73226 -12.61741 28.73592 -3.647374 -4.469402 5.343742 2.653666 10.59703 -7.970428 1.270048 21.35183 6.642037 2.900728 -25.28871 9.520286 7.067093 -20.52944 12.03623 85.1464 37.65698 -17.94901 -0 0 16.78324 -7.429058 9.058185 4.703587 6.017156 -19.93138 -1.001161 -92.41943 20.68411 20.94925 0 0 -13.42044 15.15281 15.06495 -3.158354
0.6813032 104.5616 3.376254 0.3891569 0.2372164 -0.6794088 4.006198 -19.60787 8.772611 -0 36.77532 -0 -6.600072 -13.55154 -2.295666 -6.788453 8.949152 -21.30004 -0 5.089294 -0 12.59963 -14.54429 27.09161 -3.377652 -3.793745 4.948921 2.544093 10.7048 -7.99727 1.155334 21.2522 6.952998 3.278423 -25.39245 9.364303 6.633017 -20.38319 12.07004 85.72507 36.67557 -18.50673 -0 0 15.83845 -8.951927 9.296003 5.331888 6.514792 -20.91122 -1.507006 -91.63045 20.33026 20.00031 0 0 -15.37576 15.35907 15.20254 -3.368971
0.9997238 104.7522 5.46181 0.2932449 0.5267108 -0.6618273 4.228897 -22.08116 7.735372 -0 33.55539 -0 -6.696972 -11.79005 -1.941563 -6.655365 9.5514 -20.46768 -0 4.664494 -0 11.55282 -16.40227 26.0878 -3.28244 -3.394612 4.822106 2.527718 10.52748 -8.007053 1.211719 21.12257 7.022719 3.452331 -25.43841 9.321277 6.263236 -20.12663 11.91953 86.04018 35.8748 -18.94942 -0 0 15.35743 -9.44422 9.349559 5.359667 6.997645 -21.43071 -1.571171 -91.27633 20.41033 19.30393 0 0 -16.71374 15.16348 15.38522 -3.241658
1.300272 104.7422 7.825269 0.2219214 0.9957 -0.5377934 4.55255 -24.58008 6.88637 -0 29.79512 -0 -6.559138 -10.35064 -1.680461 -6.5868 10.24662 -19.72359 -0 4.681266 -0 10.27279 -18.46588 25.04851 -3.234611 -3.060821 4.789198 2.558867 10.20696 -8.033222 1.31376 20.93528 7.046475 3.603767 -25.53209 9.305978 5.918698 -19.79193 11.69242 86.28528 35.1543 -19.46427 -0 0 14.97576 -9.610176 9.369413 5.180037 7.514663 -21.84179 -1.462584 -91.09501 20.78425 18.73094 0 0 -18.0512 14.61596 15.62468 -2.744174
1.587604 104.5601 10.48748 0.1325943 1.547709 -0.309283 4.889272 -26.93271 6.082172 -0 26.03565 -0 -6.434993 -8.928129 -1.418767 -6.534127 10.93219 -19.01098 -0 5.076739 -0 8.754747 -20.45237 23.81478 -3.173585 -2.756636 4.764421 2.609362 9.842188 -8.075601 1.398601 20.73053 7.089652 3.771515 -25.67592 9.281845 5.615467 -19.42658 11.46117 86.51308 34.53649 -20.03166 -0 0 14.58173 -9.713361 9.388753 4.988304 7.978139 -22.19684 -1.323525 -91.00892 21.36814 18.30656 0 0 -19.3836 13.78046 15.89061 -1.89957
1.86435 104.2347 13.48457 -0.01206795 2.12541 0.02548316 5.212477 -29.17521 5.207993 -0 22.37129 -0 -6.445571 -7.351347 -1.120315 -6.447857 11.62998 -18.25736 -0 5.840125 -0 6.899488 -22.28471 22.23875 -3.050835 -2.43899 4.68375 2.665 9.457192 -8.130095 1.448224 20.53588 7.171426 3.966705 -25.85279 9.230545 5.319275 -19.02132 11.2426 86.77642 33.94344 -20.6561 -0 0 14.08457 -9.88154 9.406983 4.865501 8.360296 -22.52944 -1.231532 -90.9538 22.14371 17.97165 0 0 -20.75108 12.66933 16.17468 -0.7093406
2.129442 103.7986 16.86775 -0.2400556 2.678465 0.4646434 5.513428 -31.26846 4.223651 -0 18.87778 -0 -6.649077 -5.616534 -0.7928675 -6.287383 12.37184 -17.41959 -0 7.047766 -0 4.650977 -23.82581 20.23475 -2.82816 -2.093612 4.503442 2.721144 9.058765 -8.19591 1.456491 20.37534 7.287134 4.176028 -26.03545 9.140971 4.999573 -18.55544 11.04045 87.11255 33.31781 -21.33172 -0 0 13.42094 -10.16279 9.41856 4.846266 8.630318 -22.83858 -1.228839 -90.87462 23.07908 17.65568 0 0 -22.13613 11.31689 16.44737 0.7877403
2.378035 103.2968 20.7066 -0.5714571 3.16177 0.9958148 5.801668 -33.08388 3.141071 -0 15.64502 -0 -7.066246 -3.827518 -0.4683992 -6.019215 13.17497 -16.46297 -0 8.884559 -0 2.020648 -24.85018 17.77222 -2.47214 -1.733774 4.196775 2.780341 8.653243 -8.278659 1.418726 20.26672 7.418848 4.369447 -26.19165 9.002296 4.634673 -18.005 10.85622 87.55078 32.63247 -22.04827 -0 0 12.53884 -10.56807 9.427851 4.944928 8.748785 -23.10432 -1.336633 -90.70916 24.09753 17.27864 0 0 -23.47934 9.802967 16.65292 2.493782
2.601904 102.8024 25.08135 -1.016567 3.509991 1.586183 6.113461 -34.33964 2.049892 -0 12.90793 -0 -7.68963 -2.214912 -0.2112359 -5.613739 14.01098 -15.37912 -0 11.66792 -0 -0.8502514 -25.00446 14.93685 -1.951524 -1.400807 3.753614 2.848605 8.261202 -8.386008 1.329328 20.23115 7.535392 4.498429 -26.28037 8.803145 4.219571 -17.35694 10.69953 88.10925 31.89535 -22.77601 -0 0 11.41042 -11.07301 9.446243 5.162088 8.649657 -23.27967 -1.56791 -90.3998 25.07867 16.77941 0 0 -24.64305 8.260171 16.72053 4.250565
2.789855 102.4372 30.05849 -1.565132 3.617354 2.170078 6.524952 -34.56838 1.15064 -0 11.12413 -0 -8.478158 -1.144315 -0.1295725 -5.048758 14.75776 -14.21079 -0 15.87237 -0 -3.630522 -23.84156 12.01123 -1.246016 -1.157658 3.194461 2.930559 7.929809 -8.518168 1.187351 20.29942 7.588883 4.498955 -26.2511 8.53484 3.775978 -16.62712 10.59461 88.78298 31.15312 -23.44933 -0 0 10.06532 -11.6017 9.48667 5.473648 8.237662 -23.28608 -1.928456 -89.93148 25.87617 16.16555 0 0 -25.37774 6.865252 16.58622 5.855671
2.928999 102.3899 35.64174 -2.163258 3.346001 2.641491 7.128612 -33.17583 0.7437077 -0 10.91245 -0 -9.357708 -1.029387 -0.3580875 -4.330544 15.1109 -13.07252 -0 22.09137 -0 -5.824001 -20.99524 9.497007 -0.3783678 -1.062354 2.605902 3.02119 7.742728 -8.651895 1.008629 20.50585 7.519142 4.317 -26.05978 8.198525 3.372172 -15.88642 10.58231 89.51618 30.51553 -23.95602 -0 0 8.64554 -12.01343 9.562861 5.812343 7.422827 -23.03293 -2.398059 -89.4041 26.36348 15.5972 0 0 -25.32745 5.796228 16.22427 7.120375
3.007833 102.9007 41.70578 -2.686229 2.591292 2.872545 7.912365 -29.70218 1.062684 -0 12.65579 -0 -10.26485 -2.039566 -0.9591464 -3.537382 14.49442 -12.11583 -0 30.78417 -0 -6.994418 -16.5342 7.953126 0.5289387 -1.10296 2.17577 3.093295 7.812033 -8.722416 0.8361313 20.8644 7.282256 3.971261 -25.70265 7.80859 3.136268 -15.274 10.70855 90.17069 30.19307 -24.14944 -0 0 7.428409 -12.15415 9.695542 6.077801 6.220226 -22.4939 -2.89592 -89.07908 26.49323 15.42155 0 0 -24.16233 5.160519 15.68011 7.95411
3.020091 104.1642 47.95988 -2.93939 1.398539 2.779103 8.619755 -24.27186 1.983221 -0 15.75806 -0 -11.20664 -3.732194 -1.762846 -2.853306 12.13486 -11.40272 -0 41.64034 -0 -7.0847 -11.32393 7.693214 1.213371 -1.124269 2.159996 3.091023 8.217445 -8.624014 0.7290655 21.33971 6.901645 3.615419 -25.23398 7.382101 3.217188 -14.95251 10.98812 90.52059 30.49131 -23.88137 -0 0 6.728819 -12.01356 9.912791 6.219287 4.880415 -21.81692 -3.262405 -89.26596 26.29712 15.98119 0 0 -21.87243 4.955438 15.07487 8.378998
2.96541 106.153 54.0222 -2.741793 0.01484643 2.398203 8.860122 -17.82483 2.942759 -0 18.30547 -0 -12.20333 -5.206045 -2.35759 -2.477157 7.508782 -10.79424 -0 52.80343 -0 -6.472628 -6.901592 8.606038 1.358239 -0.8689193 2.716568 2.951762 8.887394 -8.256572 0.7225349 21.85614 6.485033 3.476708 -24.70496 6.926149 3.648748 -14.9994 11.35718 90.30604 31.62132 -23.00423 -0 0 6.70222 -11.86701 10.21836 6.353419 3.874201 -21.3013 -3.318951 -90.01453 25.79956 17.193 0 0 -18.99516 5.10452 14.54183 8.419481
2.848064 108.5119 59.61282 -2.092115 -1.279034 1.867883 8.465748 -11.58235 3.327561 -0 18.26549 -0 -13.10208 -6.085907 -2.437973 -2.374382 0.9765493 -10.05308 -0 61.05688 -0 -5.672949 -4.53144 10.25787 0.8564066 -0.1993548 3.713007 2.653814 9.543131 -7.598468 0.8059613 22.3636 6.13523 3.623845 -24.05287 6.460761 4.196259 -15.3511 11.67169 89.34483 33.29328 -21.32934 -0 0 7.300207 -12.1309 10.52981 6.729715 3.576434 -21.104 -3.010355 -90.95078 25.03484 18.42075 0 0 -16.34501 5.466726 14.13317 8.075542
2.685842 110.7005 64.69786 -1.23984 -2.410947 1.30282 7.640004 -6.122998 2.989171 -0 15.40526 -0 -13.54987 -7.092871 -2.164374 -2.208819 -6.219105 -9.061324 -0 63.72507 -0 -5.040397 -4.249317 12.17857 -0.01606964 0.7388344 4.777051 2.235378 9.863329 -6.725849 0.9611165 22.8762 5.836073 3.841875 -23.12779 6.051356 4.433357 -15.89719 11.79054 87.66188 34.60967 -18.70815 -0 0 8.469047 -12.97771 10.67395 7.486321 3.921523 -21.00066 -2.48658 -91.6316 24.19123 19.07535 0 0 -14.33557 5.792791 13.82245 7.49784
2.5258 112.2747 69.43628 -0.51188 -3.404064 0.7334255 6.720024 -1.24163 2.255919 -0 11.25368 -0 -13.32839 -9.110785 -1.886501 -1.649558 -12.92578 -7.867807 -0 60.36943 -0 -4.659688 -5.100373 14.05168 -0.8314213 1.650433 5.600823 1.767993 9.730962 -5.770065 1.166157 23.38651 5.517078 3.870375 -21.93284 5.77011 4.109926 -16.61195 11.67921 85.52798 34.83399 -15.2726 -0 0 10.24467 -14.2335 10.53895 8.556763 4.51184 -20.63973 -1.969544 -91.98945 23.50942 19.24749 0 0 -12.76248 5.844825 13.57104 6.996421
2.440106 113.0345 74.04596 -0.1041472 -4.069836 0.1449657 5.919931 3.383903 1.488773 -0 7.351134 -0 -12.6336 -12.14978 -1.623367 -0.6208006 -18.76821 -6.59097 -0 52.26284 -0 -4.388506 -6.075997 15.65012 -1.34415 2.294762 6.11788 1.3326 9.269712 -4.886345 1.336721 23.77035 5.218321 3.674934 -20.7631 5.629348 3.380182 -17.55951 11.42631 83.2748 34.14936 -11.45888 -0 0 12.60028 -15.67741 10.2234 9.867902 5.006445 -19.93108 -1.55942 -92.24268 23.03004 19.53541 0 0 -11.31166 5.586261 13.32007 6.806864
2.496981 112.9958 78.73169 -0.02403069 -4.143063 -0.4740354 5.283333 7.786963 0.8435049 -0 4.466591 -0 -11.81386 -15.42438 -1.149182 0.6986422 -23.70649 -5.376625 -0 41.29096 -0 -4.056602 -6.608207 16.81045 -1.540976 2.539842 6.407976 0.987507 8.701972 -4.203542 1.366087 23.87512 5.069938 3.401485 -19.96901 5.587455 2.602277 -18.75375 11.15878 81.10523 33.26415 -7.768658 -0 0 15.29515 -17.23206 9.935268 11.40248 5.280292 -19.03763 -1.243056 -92.56341 22.61185 20.40313 0 0 -9.937146 5.144548 12.99327 6.974033
2.731638 112.309 83.65756 -0.1287494 -3.66036 -1.108274 4.740479 11.83267 0.3605454 -0 2.993678 -0 -10.99874 -17.94073 -0.3683158 1.932913 -27.50174 -4.442714 -0 29.65657 -0 -3.636498 -6.598792 17.5498 -1.538684 2.362078 6.568878 0.7278247 8.218256 -3.748366 1.245168 23.68271 5.13715 3.197197 -19.64674 5.606757 2.02734 -20.04121 10.95174 79.17678 32.60046 -4.622237 -0 0 17.90982 -18.87908 9.782324 13.05433 5.354754 -18.14422 -1.006807 -92.9646 22.14112 21.82063 0 0 -8.734556 4.646633 12.56912 7.414526
3.138678 111.2015 88.93895 -0.2186441 -3.025744 -1.729855 4.174592 15.41404 0.08177966 -0 3.320212 -0 -10.09127 -18.94208 0.5670951 2.621845 -29.7815 -4.069995 -0 19.6098 -0 -3.238911 -6.275749 18.08987 -1.493848 1.844091 6.672083 0.4862804 7.92061 -3.43272 1.091993 23.34139 5.353908 3.121656 -19.60427 5.686957 1.686158 -21.14545 10.80009 77.73464 32.05576 -2.323027 -0 0 20.02564 -20.53783 9.705032 14.57106 5.303665 -17.32492 -0.8764448 -93.3844 21.65068 23.39169 0 0 -7.699396 4.140237 12.11928 8.009638
3.68615 109.9499 94.65156 -0.1412785 -2.746868 -2.313708 3.474743 18.48685 0.07249444 -0 5.846579 -0 -8.962466 -18.08603 1.365023 2.430633 -30.32089 -4.462631 -0 12.82197 -0 -3.002998 -5.977711 18.70967 -1.541151 1.134778 6.757248 0.1799102 7.826615 -3.124326 1.066122 23.058 5.582749 3.154038 -19.54755 5.851428 1.470892 -21.81556 10.64654 77.04735 31.28174 -1.011988 -0 0 21.39497 -22.05067 9.576426 15.66456 5.193622 -16.55398 -0.8847639 -93.78483 21.26845 24.69597 0 0 -6.658002 3.615162 11.75999 8.662222
